HIERARCHY
ROOT Hips
{
  OFFSET 51.8683 85.4665 9.63476
  CHANNELS 6 Xposition Yposition Zposition Zrotation Xrotation Yrotation
  JOINT spine
  {
    OFFSET 0 6.3926 0.367606
    CHANNELS 3 Zrotation Xrotation Yrotation
    JOINT spine1
    {
      OFFSET 0 9.17611 0
      CHANNELS 3 Zrotation Xrotation Yrotation
      JOINT spine2
      {
        OFFSET 0 8.79238 0
        CHANNELS 3 Zrotation Xrotation Yrotation
        JOINT Neck
        {
          OFFSET 0 22.5737 1.07624
          CHANNELS 3 Zrotation Xrotation Yrotation
          JOINT Head
          {
            OFFSET 0 6.82011 0
            CHANNELS 3 Zrotation Xrotation Yrotation
            End Site
            {
              OFFSET 0 16.5085 -5.44427
            }
          }
        }
        JOINT RightShoulder
        {
          OFFSET -3.70221 9.49509 -0.515508
          CHANNELS 3 Zrotation Xrotation Yrotation
          JOINT RightArm
          {
            OFFSET 0 12.4537 0
            CHANNELS 3 Zrotation Xrotation Yrotation
            JOINT RightArmRoll
            {
              OFFSET 0 6.28686 0
              CHANNELS 3 Zrotation Xrotation Yrotation
              JOINT RightForeArm
              {
                OFFSET 0 18.3114 0
                CHANNELS 3 Zrotation Xrotation Yrotation
                JOINT RightForeArmRoll
                {
                  OFFSET 0 7.05482 0
                  CHANNELS 3 Zrotation Xrotation Yrotation
                  JOINT RightHand
                  {
                    OFFSET 0 14.1575 0
                    CHANNELS 3 Zrotation Xrotation Yrotation
                    End Site
                    {
                      OFFSET 0 0 0
                    }
                  }
                }
              }
            }
          }
        }
        JOINT LeftShoulder
        {
          OFFSET 3.70221 9.49509 -0.515508
          CHANNELS 3 Zrotation Xrotation Yrotation
          JOINT LeftArm
          {
            OFFSET 0 12.4537 0
            CHANNELS 3 Zrotation Xrotation Yrotation
            JOINT LeftArmRoll
            {
              OFFSET 0 6.28686 0
              CHANNELS 3 Zrotation Xrotation Yrotation
              JOINT LeftForeArm
              {
                OFFSET 0 18.3114 0
                CHANNELS 3 Zrotation Xrotation Yrotation
                JOINT LeftForeArmRoll
                {
                  OFFSET 0 7.05482 0
                  CHANNELS 3 Zrotation Xrotation Yrotation
                  JOINT LeftHand
                  {
                    OFFSET 0 14.1575 0
                    CHANNELS 3 Zrotation Xrotation Yrotation
                    End Site
                    {
                      OFFSET 0 0 0
                    }
                  }
                }
              }
            }
          }
        }
      }
    }
  }
  JOINT RightUpLeg
  {
    OFFSET -5.66616 -1.03903 -0.87161
    CHANNELS 3 Zrotation Xrotation Yrotation
    JOINT RightUpLegRoll
    {
      OFFSET 0 16.6005 0
      CHANNELS 3 Zrotation Xrotation Yrotation
      JOINT RightLeg
      {
        OFFSET 0 -20.5572 0
        CHANNELS 3 Zrotation Xrotation Yrotation
        JOINT RightLegRoll
        {
          OFFSET 0 20.6244 0
          CHANNELS 3 Zrotation Xrotation Yrotation
          JOINT RightFoot
          {
            OFFSET 0 17.1664 0
            CHANNELS 3 Zrotation Xrotation Yrotation
            JOINT RightToeBase
            {
              OFFSET 0 14.3502 0
              CHANNELS 3 Zrotation Xrotation Yrotation
              End Site
              {
                OFFSET 0.00608252 6.9497 -0.801061
              }
            }
          }
        }
      }
    }
  }
  JOINT LeftUpLeg
  {
    OFFSET 5.66616 -1.03903 -0.87161
    CHANNELS 3 Zrotation Xrotation Yrotation
    JOINT LeftUpLegRoll
    {
      OFFSET 0 16.6006 0
      CHANNELS 3 Zrotation Xrotation Yrotation
      JOINT LeftLeg
      {
        OFFSET 0 20.5571 0
        CHANNELS 3 Zrotation Xrotation Yrotation
        JOINT LeftLegRoll
        {
          OFFSET 0 20.8151 0
          CHANNELS 3 Zrotation Xrotation Yrotation
          JOINT LeftFoot
          {
            OFFSET 0 16.9757 0
            CHANNELS 3 Zrotation Xrotation Yrotation
            JOINT LeftToeBase
            {
              OFFSET 0 14.3502 0
              CHANNELS 3 Zrotation Xrotation Yrotation
              End Site
              {
                OFFSET -0.0272592 6.94971 -0.801061
              }
            }
          }
        }
      }
    }
  }
}
MOTION
Frames: 4
Frame Time: 0.00208333
51.9711 90.1115 10.6794 0.134404 3.73427 1.66611 -0.561283 -2.15863 -0.271713 -1.12876 -0.312365 -0.491437 -1.12315 1.33251 -0.472647 -5.5297 21.2643 -0.406512 11.029 6.73747 -2.21088 32.9738 -20.2017 -16.584 68.641 31.0199 54.4141 -2.47745e-007 1.0738e-007 -2.66121e-006 -5.86609 52.4487 4.04095 2.21832e-006 -1.88737e-007 -3.00001 8.02904 -4.95139 0.697692 -20.8963 -23.9776 23.8949 -72.169 27.7598 -50.01 5.11801e-006 -3.26363e-006 3.38616e-006 18.4067 52.7941 -13.9088 1.80882e-006 -9.62004e-008 3 -8.02888 -4.95144 -0.697687 166.191 9.56777 4.59989 180 7.01482e-015 178.669 -179.162 17.8675 178.949 -5.44318e-007 -6.69346e-007 -0.00691823 -16.7712 65.0902 17.3944 8.13259 25.1753 -3.55335 -165.638 11.2165 -3.9778 4.54188e-006 -4.67731e-006 -1.34787 2.26124 -16.2085 0.803681 -4.71681e-006 -6.3729e-006 0.189753 16.6131 64.17 -16.7865 -8.13649 25.2327 3.48774 
51.9605 90.2179 10.6605 0.190611 3.81131 1.65144 -0.554736 -2.16448 -0.269131 -1.11562 -0.324093 -0.486975 -1.11005 1.32078 -0.468401 -5.98256 21.1381 -0.246528 11.3067 6.74824 -2.21551 33.1645 -20.0162 -16.3591 69.1292 30.6262 53.7951 -2.47745e-007 1.0738e-007 -2.66121e-006 -5.83093 51.819 3.9086 2.21832e-006 -1.88737e-007 -3.00001 8.02904 -4.95139 0.697692 -21.6444 -23.9341 23.6127 -72.1673 27.4504 -49.2762 5.11801e-006 -3.26363e-006 3.38616e-006 18.0158 51.7427 -13.293 1.80882e-006 -9.62005e-008 3 -8.02888 -4.95144 -0.697687 166.297 9.7859 4.63299 180 7.01485e-015 178.681 -179.3 18.0036 178.964 -5.44318e-007 -6.69346e-007 0.00893542 -16.786 65.1618 17.4429 8.13332 25.1859 -3.5413 -165.914 11.3451 -3.87652 4.54188e-006 -4.67731e-006 -1.33567 2.16871 -16.342 0.799182 -4.71681e-006 -6.3729e-006 0.173514 16.6146 64.2182 -16.8185 -8.13649 25.2327 3.48774 
52.0101 90.3343 10.6318 0.242554 3.88344 1.63884 -0.547972 -2.16932 -0.266077 -1.10202 -0.333803 -0.481579 -1.09651 1.31107 -0.463232 -6.40682 21.0063 -0.0984596 11.5628 6.76371 -2.2218 33.3512 -19.8352 -16.1413 69.6112 30.2372 53.1888 -2.47745e-007 1.0738e-007 -2.66121e-006 -5.79469 51.1701 3.77694 2.21832e-006 -1.88737e-007 -3.00001 8.02904 -4.95139 0.697692 -22.3741 -23.8848 23.3324 -72.1839 27.1462 -48.5311 5.11801e-006 -3.26363e-006 3.38616e-006 17.6189 50.6729 -12.6909 1.80882e-006 -9.62004e-008 3 -8.02888 -4.95144 -0.697687 166.41 9.99812 4.66333 180 7.01488e-015 178.692 -179.44 18.142 178.981 -5.44318e-007 -6.69346e-007 0.0245944 -16.8016 65.2328 17.4912 8.13408 25.1969 -3.52866 -166.186 11.4725 -3.77865 4.54188e-006 -4.67731e-006 -1.32367 2.07603 -16.4827 0.795095 -4.71681e-006 -6.3729e-006 0.157147 16.6178 64.2684 -16.8516 -8.13649 25.2327 3.48774 
52.011 90.4505 10.5893 0.291981 3.95002 1.62894 -0.541422 -2.17312 -0.262678 -1.08884 -0.341428 -0.475464 -1.0834 1.30345 -0.457335 -6.7993 20.8718 0.0363597 11.7946 6.78234 -2.22977 33.5358 -19.6594 -15.9307 70.085 29.8541 52.5967 -2.47745e-007 1.0738e-007 -2.66121e-006 -5.75773 50.5003 3.64616 2.21832e-006 -1.88737e-007 -3.00001 8.02904 -4.95139 0.697692 -23.0842 -23.8299 23.0545 -72.2239 26.8462 -47.7737 5.11801e-006 -3.26363e-006 3.38616e-006 17.2088 49.5933 -12.1007 1.80882e-006 -9.62005e-008 3 -8.02888 -4.95144 -0.697687 166.527 10.202 4.69112 180 7.01491e-015 178.703 -179.58 18.2799 178.997 -5.44318e-007 -6.69346e-007 0.0398466 -16.8176 65.3025 17.5388 8.13482 25.2077 -3.51631 -166.456 11.596 -3.68221 4.54188e-006 -4.6773e-006 -1.31194 1.98316 -16.6262 0.791056 -4.71681e-006 -6.3729e-006 0.140914 16.6222 64.3198 -16.8856 -8.13649 25.2327 3.48774 
